<svg xmlns="http://www.w3.org/2000/svg" width="130" height="36" viewBox="0 0 105.03 29">
    <defs>
        <style>
            .svg-white {
                fill: #fff;
                fill-rule: evenodd;
            }
            .svg-opacity {
                opacity:.5;
            }
        </style>
    </defs>
    <path
        id="world_class_logo"
        data-name="world_class_logo"
        class="svg-white svg-opacity"
        d="M26.23 11.22l-1.71 10.748a.838.838 0 0 1-.86.777.63.63 0 0 1-.5-.2.707.707 0 0 1-.11-.61l1.7-10.736a.845.845 0 0 1 .87-.79.63.63 0 0 1 .5.2.743.743 0 0 1 .11.61m-.3-3.11c-2.69 0-4.35 1.03-4.76 3.468L19.58 21.63c-.27 2.26 1.19 3.427 3.77 3.427 2.69 0 4.32-.973 4.73-3.41h.01l1.57-9.935c.41-2.437-1.05-3.605-3.73-3.605m42.85 16.778L72.04 4.23h-3.57l-3.26 20.655h3.57zM38.01 8.22l.02-.12a3.8 3.8 0 0 0-3.58 1.214l-.64-1.037h-2.14l-2.62 16.61h3.57l1.95-12.33c.27-1.693 1.88-1.477 2.95-1.22zm1.58-4l-3.26 20.653h3.57L43.16 4.22h-3.57zm8.95 7l-1.71 10.747a.837.837 0 0 1-.86.778.627.627 0 0 1-.5-.2.71.71 0 0 1-.11-.612l1.71-10.735a.836.836 0 0 1 .86-.788.63.63 0 0 1 .5.2.708.708 0 0 1 .11.61m1.05-6.986l-.72 4.59a2.942 2.942 0 0 0-2.16-.72c-1.92 0-2.84.99-3.14 2.914L41.81 22.16c-.3 1.91.69 2.89 2.61 2.89a3.254 3.254 0 0 0 2.72-1.184l.62 1.022h2.14l3.26-20.654h-3.57zm37.55 3.862c-2.72 0-4.33.917-4.77 3.468l-.2 1.1a3.738 3.738 0 0 0 1.28 3.834l2.06 1.843a1.283 1.283 0 0 1 .48 1.23l-.38 2.388a.837.837 0 0 1-.86.778.63.63 0 0 1-.5-.2.708.708 0 0 1-.11-.61l.46-2.9h-3.42l-.44 2.56c-.31 2.282 1.22 3.45 3.68 3.45 2.91 0 4.39-.964 4.82-3.4l.25-1.47a3.86 3.86 0 0 0-1.14-3.943l-2.2-1.944a1.172 1.172 0 0 1-.48-1.26v-.025l.27-1.806a.85.85 0 0 1 .87-.79.63.63 0 0 1 .5.2.71.71 0 0 1 .11.612l-.39 2.437h3.48l.32-1.925c.4-2.13-.61-3.627-3.69-3.627m9.97 0c-2.72 0-4.34.917-4.78 3.468l-.2 1.1a3.757 3.757 0 0 0 1.28 3.834l2.07 1.843a1.3 1.3 0 0 1 .48 1.23l-.38 2.387a.843.843 0 0 1-.86.778.653.653 0 0 1-.51-.2.743.743 0 0 1-.11-.61l.46-2.9h-3.42l-.43 2.56c-.31 2.282 1.21 3.45 3.67 3.45 2.92 0 4.4-.964 4.82-3.4l.25-1.47a3.84 3.84 0 0 0-1.14-3.943l-2.2-1.944a1.2 1.2 0 0 1-.48-1.26l.01-.023.27-1.806a.836.836 0 0 1 .86-.788.63.63 0 0 1 .5.2.744.744 0 0 1 .12.612L97 13.65h3.47l.32-1.923c.4-2.13-.61-3.627-3.68-3.627m-21.4 13.87a.837.837 0 0 1-.86.78.627.627 0 0 1-.5-.2.637.637 0 0 1-.13-.426 1.336 1.336 0 0 1 .02-.19l.46-2.918a1.668 1.668 0 0 1 .94-1.31l.83-.426zm1.44-13.866c-2.67 0-4.4 1.038-4.8 3.476l-.33 2.08h3.54l.38-2.456a.85.85 0 0 1 .87-.79.63.63 0 0 1 .5.2.708.708 0 0 1 .11.612l-.49 3.167-3.28 1.74a4.5 4.5 0 0 0-2.58 3.59l-.39 2.437c-.31 1.917.7 2.89 2.61 2.89a3.29 3.29 0 0 0 2.72-1.185l.61 1.024h2.15l2.1-13.245c.41-2.438-1.25-3.54-3.72-3.538m-14.59-4.04c-2.69 0-4.56 1.1-4.94 3.538l-2.21 13.757c-.37 2.357 1.01 3.694 4.09 3.7 2.59 0 4.35-1.086 4.73-3.523l.81-4.832h-3.63v.04l-.82 5.15a.872.872 0 0 1-.9.823.674.674 0 0 1-.53-.21.775.775 0 0 1-.13-.64l2.36-14.676a.877.877 0 0 1 .9-.82.676.676 0 0 1 .53.208.776.776 0 0 1 .13.642l-.7 4.268h3.6l.62-3.8c.38-2.438-1.23-3.62-3.91-3.62m40.74 8.112l-1.6 10.01c-.41 2.315-.91 5.195-6.36 5.195H59.5c-2.64 0-4.41-.57-5.48-1.894a6.286 6.286 0 0 1-1.23-2.426l-.69 4.32H23.35c-2.73 0-4.25-.787-5.05-1.665l-.03-.044h-.01l-.51 1.712H1.59V1.61h23.97l-1.24 4.082h12.45l.64-4.084h18.76L55.6 5.49l.93-1.07a7.993 7.993 0 0 1 6.03-2.812h12.49l-.68 4.286.59-.13a10.346 10.346 0 0 1 2.19-.223 6.885 6.885 0 0 1 4.53 1.416l.26.213.26-.2a7.906 7.906 0 0 1 4.94-1.432 6.917 6.917 0 0 1 4.55 1.384l.25.21.26-.2a7.973 7.973 0 0 1 4.9-1.4 6.37 6.37 0 0 1 5.19 2.03 5.42 5.42 0 0 1 1.01 4.612M-.01 28.984h18.94l.2-.672a9.57 9.57 0 0 0 4.22.672h30.11l.25-1.585a9.11 9.11 0 0 0 5.79 1.584h35.84c6.79 0 7.54-4.242 7.94-6.545l1.6-9.994a6.968 6.968 0 0 0-1.36-5.906c-1.43-1.73-3.59-2.607-6.42-2.608a10.06 10.06 0 0 0-5.12 1.225 8.962 8.962 0 0 0-4.84-1.224 10.008 10.008 0 0 0-5.17 1.256 8.852 8.852 0 0 0-4.82-1.253c-.29 0-.58.01-.86.028L76.92 0H62.56a9.4 9.4 0 0 0-4.73 1.284L58.02 0H36.05l-.65 4.086h-8.92L27.71.003H-.01v28.98m15.63-4.187l6.32-20.624h-3.58l-3.24 10.46h-.24l.04-10.46h-3.93l-3.1 10.464h-.23V4.176H4.14V24.8h3.77l3.52-11.812h.23l.2 11.812h3.76z"
    />
</svg>